<svg width="16" height="16" viewBox="0 0 16 16" fill="none" xmlns="http://www.w3.org/2000/svg">
<g clip-path="url(#clip0_2881_905)">
<path d="M13.2516 1.92636C11.9922 0.834461 10.3854 0.12721 8.61725 -0.00927734V1.2129C10.0504 1.33698 11.3532 1.91395 12.3893 2.78871L13.2516 1.92636Z" fill="#6DBCC5"/>
<path d="M15.9938 7.36695C15.8635 5.62364 15.1748 4.03543 14.1078 2.78223L13.2392 3.65078C14.0891 4.68064 14.6413 5.96486 14.7654 7.36695H15.9938Z" fill="#4D8EC4"/>
<path d="M14.0891 13.1863C15.1686 11.9269 15.8635 10.3387 15.9938 8.58301H14.7716C14.6475 9.99751 14.0891 11.2879 13.2268 12.3178L14.0891 13.1863Z" fill="#1A4592"/>
<path d="M13.233 14.0427L12.3706 13.1803C11.5269 13.8876 10.5032 14.3963 9.38033 14.6259V14.6196C6.98561 15.116 4.57227 14.2722 2.99646 12.5475C2.99026 12.5413 2.98406 12.5351 2.97785 12.5289C2.95304 12.4979 2.92202 12.4669 2.8972 12.4359C2.88479 12.4234 2.87238 12.4048 2.85998 12.3924C2.84137 12.3676 2.81655 12.3428 2.79794 12.3242C2.77933 12.3056 2.76692 12.287 2.74831 12.2684C2.72969 12.2497 2.71729 12.2249 2.69867 12.2063C2.68006 12.1877 2.66765 12.1629 2.64904 12.1443C2.63043 12.1257 2.61802 12.1008 2.59941 12.0822C2.587 12.0636 2.56839 12.045 2.55598 12.0264C2.53737 12.0016 2.51876 11.9768 2.50635 11.9582C2.49394 11.9395 2.48154 11.9271 2.47533 11.9085C2.45672 11.8775 2.43811 11.8527 2.41329 11.8217C2.40709 11.8093 2.40088 11.8031 2.39468 11.7906C2.36986 11.7534 2.34505 11.7224 2.32644 11.6852C2.32644 11.679 2.32023 11.679 2.32023 11.6728C1.97902 11.1454 1.69984 10.5623 1.51372 9.92326C1.42066 9.61306 1.35242 9.30286 1.30278 8.99266C1.30278 8.98025 1.29658 8.96785 1.29658 8.95544C1.29658 8.94303 1.29038 8.93062 1.29038 8.91821C1.24695 8.60802 1.22213 8.29162 1.22213 7.96901C1.22213 7.30519 1.31519 6.66618 1.49511 6.0644C1.49511 6.05819 1.49511 6.05819 1.50131 6.05199C1.51372 6.00856 1.52613 5.97134 1.53853 5.92791C1.54474 5.9155 1.54474 5.90309 1.55094 5.89068C1.56335 5.85966 1.57576 5.82244 1.58196 5.79142C1.58817 5.77281 1.59437 5.7542 1.60057 5.73559C1.61298 5.71077 1.61919 5.67975 1.63159 5.65493C1.6378 5.63012 1.65021 5.61151 1.65641 5.58669C1.66261 5.56187 1.67502 5.53706 1.68743 5.51224C1.69363 5.48743 1.70604 5.46261 1.71845 5.4378C1.73086 5.41298 1.73706 5.38816 1.74947 5.36335C1.76188 5.33853 1.76808 5.31992 1.78049 5.2951C1.7929 5.26408 1.8053 5.23927 1.81771 5.20825C1.82392 5.18964 1.83012 5.17103 1.84253 5.15862C1.86114 5.12139 1.87975 5.08417 1.89216 5.04695C1.89836 5.04074 1.89836 5.03454 1.90457 5.02213C2.91581 2.91899 4.98173 1.41763 7.41988 1.20049V-0.00927734C6.62578 0.0527622 5.85649 0.226473 5.14303 0.505651C3.23221 1.23151 1.75567 2.615 0.880915 4.30868C0.874711 4.32108 0.868507 4.33349 0.862303 4.3459C0.843691 4.38312 0.82508 4.42655 0.800264 4.46377C0.787856 4.48859 0.775448 4.51341 0.769244 4.53202C0.756836 4.56304 0.738224 4.59406 0.725816 4.61887C0.713408 4.64989 0.694796 4.68091 0.682389 4.71193C0.669981 4.73675 0.663777 4.75536 0.651369 4.78018C0.638961 4.8174 0.620349 4.85462 0.607941 4.88564C0.601737 4.90426 0.589329 4.92287 0.583125 4.94768C0.570717 4.98491 0.552105 5.02213 0.539698 5.05935C0.533494 5.07797 0.521086 5.10278 0.514882 5.12139C0.502474 5.16482 0.490066 5.20205 0.477658 5.23306C0.471454 5.25788 0.459046 5.2827 0.452842 5.30131C0.440434 5.33233 0.428026 5.36335 0.421822 5.39437C0.409415 5.42539 0.403211 5.4502 0.390803 5.48122C0.384599 5.51224 0.372191 5.53706 0.365987 5.56187C0.353579 5.5991 0.341171 5.63632 0.328763 5.67355C0.322559 5.69216 0.316355 5.70457 0.316355 5.72318C0.303947 5.77281 0.291539 5.82244 0.272927 5.87207C0.272927 5.87828 0.266724 5.88448 0.266724 5.89068C-0.0124544 6.92674 -0.0869019 8.03105 0.0744009 9.13535V9.14156C0.235704 10.2521 0.626553 11.2819 1.19111 12.2001C1.19732 12.2063 1.19732 12.2125 1.20352 12.2187C1.22834 12.2621 1.25936 12.3056 1.28417 12.3428C1.29658 12.3552 1.30278 12.3738 1.31519 12.3862C1.34001 12.4172 1.35862 12.4545 1.38344 12.4855C1.39584 12.5103 1.41446 12.5289 1.42686 12.5537C1.44548 12.5785 1.46409 12.6034 1.4827 12.6282C1.50131 12.653 1.51992 12.684 1.53853 12.7088C1.55094 12.7274 1.56955 12.7461 1.58196 12.7709C1.60678 12.8019 1.62539 12.8329 1.65021 12.8639C1.66261 12.8825 1.67502 12.9012 1.68743 12.9136C1.71225 12.9446 1.73706 12.9756 1.76188 13.0066C1.77428 13.0252 1.78669 13.0376 1.8053 13.0563C1.83012 13.0873 1.85494 13.1183 1.87975 13.1493C1.89836 13.1679 1.91077 13.1865 1.92938 13.2051C1.9542 13.23 1.97281 13.2548 1.99763 13.2858C2.01624 13.3106 2.04105 13.3354 2.06587 13.3602C2.08448 13.3789 2.10309 13.3975 2.12171 13.4161C2.15273 13.4471 2.18375 13.4781 2.21477 13.5153C2.22717 13.5278 2.23338 13.534 2.24579 13.5464C3.57343 14.9174 5.37878 15.817 7.40127 15.9721C7.80453 16.0031 8.20779 16.0031 8.61725 15.9721C10.373 15.8294 11.9736 15.1284 13.233 14.0427Z" fill="#163672"/>
<path d="M5.28573 2.99951V4.47605C4.72737 4.91033 4.27448 5.46869 3.97049 6.1139H2.63043C3.10193 4.78005 4.05734 3.66954 5.28573 2.99951Z" fill="#163672"/>
<path d="M13.3695 6.1141H12.0294C11.7192 5.45648 11.2601 4.89192 10.6894 4.45764V2.9873C11.9302 3.65113 12.898 4.76784 13.3695 6.1141Z" fill="#163672"/>
<path d="M8.62345 2.35426C8.41872 2.32945 8.21399 2.32324 8.00306 2.32324C7.79212 2.32324 7.58739 2.33565 7.38266 2.35426V6.08904H8.62345V2.35426Z" fill="#163672"/>
<path d="M2.30162 7.87564H13.6859C13.6735 7.45998 13.6238 7.05052 13.5246 6.65967H2.45672C2.36366 7.05052 2.30782 7.45377 2.30162 7.87564Z" fill="#163672"/>
<path d="M13.4377 9.65632C13.5618 9.25927 13.6362 8.8436 13.6673 8.41553H2.31403C2.34505 8.8436 2.4257 9.25927 2.54357 9.65632H6.02399V11.9828C5.30433 11.6292 4.69634 11.0832 4.26827 10.4194H2.84757C3.48037 11.7595 4.6219 12.8203 6.02399 13.3353C6.42104 13.478 6.83671 13.5834 7.26478 13.6393V9.65632H8.88401V13.6144C9.31829 13.5462 9.73396 13.4283 10.1248 13.267C11.4462 12.7273 12.5257 11.7036 13.1337 10.4194H11.7192C11.3222 11.0336 10.7762 11.5423 10.131 11.8959V9.65632H13.4377Z" fill="#163672"/>
</g>
<defs>
<clipPath id="clip0_2881_905">
<rect width="16" height="16" fill="white"/>
</clipPath>
</defs>
</svg>
